Happy.Go.Lucky.LIMITED.2008.BRRip.x264.aac.mp4.anoXmous

Format                           : MPEG-4
Format profile                   : Base Media
Codec ID                         : isom
File size                        : 700 MiB
Duration                         : 1h 59mn
Overall bit rate mode            : Variable
Overall bit rate                 : 821 Kbps

Video
ID                               : 1
Format                           : AVC
Format/Info                      : Advanced Video Codec
Format profile                   : High@L4.1
Format settings, CABAC           : Yes
Format settings, ReFrames        : 4 frames
Codec ID                         : avc1
Codec ID/Info                    : Advanced Video Coding
Duration                         : 1h 59mn
Bit rate                         : 753 Kbps
Maximum bit rate                 : 3 591 Kbps
Width                            : 1 280 pixels
Height                           : 544 pixels
Display aspect ratio             : 2.35:1
Original display aspect ratio    : 2.35:1
Frame rate mode                  : Constant
Frame rate                       : 23.976 fps
Color space                      : YUV
Chroma subsampling               : 4:2:0
Bit depth                        : 8 bits
Scan type                        : Progressive
Bits/(Pixel*Frame)               : 0.045
Stream size                      : 642 MiB (92%)
Writing library                  : x264 core 120 r2120 0c7dab9

Audio
ID                               : 2
Format                           : AAC
Format/Info                      : Advanced Audio Codec
Format profile                   : LC
Codec ID                         : 40
Duration                         : 1h 59mn
Bit rate mode                    : Variable
Bit rate                         : 66.2 Kbps
Maximum bit rate                 : 85.3 Kbps
Channel(s)                       : 2 channels
Channel positions                : Front: L R
Sampling rate                    : 48.0 KHz 
Compression mode                 : Lossy
Stream size                      : 55.6 MiB (8%)
Language                         : English

                              SUB:
Happy.Go.Lucky.LIMITED.2008.BRRip.x264.aac.mp4.anoXmous_swe.srt
 
http://www.imdb.com/title/tt1045670/

 +++++++ This work very fine with PSP and XBOX :) +++++++++